<svg xmlns="http://www.w3.org/2000/svg" viewBox="0 0 544.33 595.4"><defs><style>.cls-1{fill:#fff;}.cls-2{fill:#ba1ad6;}</style></defs><g id="Layer_2" data-name="Layer 2"><g id="Layer_1-2" data-name="Layer 1"><path class="cls-1" d="M261.77,294c-1.77,1-4-.69-5.81.94,10.18,2.12,20.22.05,30.76-.59-1.11,1.18-1.68.81-2,.26-.49-1,.46-.9,1-1,2.35-.27,4.72-.46,7.07-.74,33.6-4.07,60.5-20.43,82.93-45.1A131.33,131.33,0,0,0,396.17,218a143.26,143.26,0,0,0,14.13-48.15c1.63-14.38.79-28.66-1.32-42.93A51.48,51.48,0,0,1,411.71,140c2.82,24.77.05,48.86-9.84,71.83C395,227.76,386.72,243,374.23,255.28,349.77,279.35,321,295,286.46,299a144.91,144.91,0,0,1-40.65-.72,13,13,0,0,0-5.53.53c-17.86,4.77-35.8,9.07-54.42,9.62-10.56.31-14.41-2.71-18.08-12.13-1.53-3.94-.36-8.19.23-12.23.92-6.3,2.13-12.56,3.38-18.79a4.72,4.72,0,0,0-1.59-4.91c-32.37-31.17-48.54-69.43-45.24-114.11C129,86.92,159.34,44.7,214.1,20.74A159.47,159.47,0,0,1,256.61,9.21a6,6,0,0,0,5.2-3.53,10.93,10.93,0,0,1,4.28-5.1A3.33,3.33,0,0,1,270,.67c1.42,1.23-.18,2.17-.64,3.21s-2.3,2.2-1.44,3.52,2.54.34,3.85.31c36.05-.85,68.11,10,95.8,33.11,21,17.56,36.16,39.29,44.45,65.52a144.87,144.87,0,0,1,6.55,55.91c-.05.67.29,1.5-.83,2.24,0-1.36,0-2.51,0-3.65,1.5-37.7-9.21-71.35-33.5-100.43-3-3.63-6.59-6.82-9.84-10.26-1.16-1.23-2.22-1.75-3.92-1-2.09.94-4.41.7-6.65.7-38.56-.07-76.79,3-114.46,11.7-2.87.66-4.41,1.82-5.42,4.68q-19.5,55.06-38.21,110.4c-1.48,4.38-1.46,4.45,3.28,3.9,28.62-3.33,57.36-5.79,85.83-10.44,3.32-.55,6.57-1.48,9.89-2.07,3.15-.56,3.89.44,2.81,3.48-1.36,3.81-4.13,5.79-8.09,6.25q-18,2.08-36.07,4.2c-19.71,2.29-39.42,4.59-59.14,6.78a3.66,3.66,0,0,0-3.58,3c-6.11,19.27-11.93,38.63-17.7,58-1.93,6.46-.15,9.36,4.38,12.9a148.26,148.26,0,0,0,52.43,26.52,6.64,6.64,0,0,0,3.67.06c18.75-5.24,37.49-10.51,55.32-18.5a50.88,50.88,0,0,0,6.53-3.63,6.28,6.28,0,0,1,5.69-.89c1.88.65,4,1.41,4.38,3.62s-1.94,2.75-3.35,3.53c-14.5,8-30,13.53-45.82,18.23-1.48.44-3.33.31-4.17,2.1ZM235.61,65c-7.79,2.15-14.63,4-21.42,5.94-10.78,3.16-21.49,6.54-32,10.63-1.7.66-3.49,1.07-4.81-.59s-.77-3.52.33-5.18a9.47,9.47,0,0,1,3.82-3.5c2.25-1.08,4.47-2.23,6.79-3.13,15.17-5.89,30.89-9.83,46.82-13,2-.39,4.12-.23,5.14-2.89,4.61-12,9.36-23.94,15.09-35.46.89-1.79.58-2.5-1.57-2.24a99.52,99.52,0,0,0-13.59,2.56c-48.14,12.69-82,41.18-98.07,89.11a139.39,139.39,0,0,0-6.1,63.52c3.89,29.17,15.55,54.75,35.31,76.6.79.88,1.44,2.46,2.8,2.14,1.19-.27,1-1.89,1.23-2.93,4.45-17.92,9-35.82,14.75-53.37,1-3.07-.22-3.06-2.53-2.77-4.7.59-9.42,1.08-14.13,1.53-1.32.13-2.94.46-3.57-1.21s.16-2.88,1.19-4.09c1.25-1.47,2.94-1.81,4.68-2.06,4.57-.66,9.12-1.45,13.71-1.86,3-.27,4.45-1.55,5.41-4.48C206.8,142,219.79,106.05,233.56,70.43,234.14,68.94,234.69,67.43,235.61,65ZM348.16,36.49c-1.27-.74-2.54-1.46-3.8-2.22-22.16-13.27-46.26-19.5-72-20.09-4.87-.11-7.95.32-10.05,6.05C258.64,30.27,254,40,250,50c-1.09,2.72-.77,3.54,2.32,3A685.34,685.34,0,0,1,354.8,44.32c4.16,0,8.33,0,13.4,0C340.3,20.9,309,9.79,275.53,10.28,300.66,12.47,326,19.94,348.16,36.49ZM225,294.12l-.1-.94c-2.34-.83-4.69-1.62-7-2.51a146.71,146.71,0,0,1-36.78-20.52c-.94-.72-2.39-2.88-3.09.25-1.53,6.93-3.46,13.81-4.13,20.89-.71,7.42,3.36,11,10.85,10.28a172.2,172.2,0,0,0,18.1-2.75C210.25,297.33,217.62,295.69,225,294.12Zm-52.46-38c1.74-3.68,1.67-3.63-1.36-7.08-32.54-37-44.44-79.66-34.67-128.15.37-1.83.71-3.67,1.12-5.49s.86-3.57,1.29-5.35h-1C121.79,165.16,133,213.79,172.54,256.13Zm65.55,34c-1.84-.63-3.34-1.17-4.87-1.66a135.07,135.07,0,0,1-18.39-7.25,150.24,150.24,0,0,1-31.58-20.46c-.91-.77-1.93-2-3.12-.53-.89,1.09-.61,2,.65,3a141.44,141.44,0,0,0,51.43,27.28C234,291,235.78,291.9,238.09,290.14Z"/><path class="cls-2" d="M217.89,507c-6.81,7.21-14.15,12.86-23.37,15.68-30.87,9.46-61.85-7.33-70.23-38.6-5.53-20.62-2.81-40.19,10.87-57.3a53.89,53.89,0,0,1,74.49-9.11c2.87,2.19,5,5.11,8,8.12.09-1.91.2-3.2.2-4.5,0-19.59.07-39.18,0-58.77,0-2.89.68-3.94,3.71-3.8,5.35.24,10.73.22,16.09,0,2.79-.11,3.59.72,3.57,3.54-.14,15.6-.07,31.2-.07,46.8,0,36.31,0,72.63.09,108.94,0,3.64-.95,4.76-4.56,4.54a128.9,128.9,0,0,0-15,0c-3.25.18-4.05-1-3.86-4C218.07,514.65,217.89,510.81,217.89,507Zm-73-41.25C144.78,488,159.9,504,181.05,504.18s37.13-16.19,37.29-38.09c.16-21.49-15.87-38.16-36.76-38.24C160.17,427.77,144.91,443.5,144.84,465.73Z"/><path class="cls-2" d="M473.18,506.86c-4.07,3.91-7.88,7.56-12.35,10.47-21.09,13.75-50.82,9.34-68.6-9.82-21.94-23.65-21.75-71.23,11.2-92.44C422,403.14,454,402.4,471.38,424.31a14.61,14.61,0,0,0,1.12,1.06c1.25-1.21.65-2.65.65-3.91.05-19.59.1-39.17,0-58.76,0-3,.6-4.19,3.84-4a128.73,128.73,0,0,0,15,0c3.51-.21,4.61.67,4.59,4.42-.16,35.43-.09,70.86-.09,106.29,0,16.47-.06,32.94.06,49.41,0,2.74-.66,3.73-3.53,3.62-5.61-.21-11.23-.15-16.84,0-2.32.06-3.05-.75-3-3C473.29,515.22,473.18,511,473.18,506.86Zm-37-2.68c21,.18,37.3-16.28,37.55-37.9.25-21.22-15.94-38.2-36.64-38.42-21.48-.23-37.06,15.64-37.16,37.87C399.86,487.76,415.17,504,436.21,504.18Z"/><path class="cls-2" d="M68.56,473.39c-14.11,0-28.21.07-42.31-.06-2.78,0-3.34.75-2.83,3.41,2.27,11.89,8.41,20.76,19.87,25.24,11.83,4.64,23.65,4.41,35.22-1.12a27.26,27.26,0,0,0,11.85-11.09c1.21-2.06,2.35-2.76,4.73-2q7.83,2.5,15.82,4.54c2.48.64,2.46,1.55,1.35,3.56C104.09,510.62,91.69,520,75.39,523.5c-21.2,4.53-41,1.44-57.74-13.61C6.94,500.23,1.71,487.71.39,473.57-1.35,454.86,2.51,437.64,16,423.78,31,408.3,49.75,404.32,70.36,408c25.19,4.5,41.93,23.3,44.12,48.82a79.17,79.17,0,0,1,.28,12.7c-.21,2.92-1.14,4-4.27,3.94C96.51,473.28,82.53,473.39,68.56,473.39ZM57.5,457.63v-.14c10.46,0,20.93,0,31.39,0,2.22,0,3.09-.4,2.64-3-2-11.67-8-20.2-19.13-24.79-21.35-8.83-44.66,3-48.85,24.72-.5,2.59,0,3.23,2.55,3.2C36.57,457.57,47,457.63,57.5,457.63Z"/><path class="cls-2" d="M323.64,473.39c-14,0-27.95.08-41.92-.07-3,0-3.57.91-3,3.67,2.85,15.1,13,25.14,28.7,27.49,12.6,1.89,24.43.06,34.06-9.26a20.78,20.78,0,0,0,4.09-5.3c1.2-2.35,2.49-2.92,5-2.09,5,1.63,10,3.06,15.1,4.34,2.61.66,3.13,1.5,1.72,4-9.73,17.18-24.79,26.49-44,28.67-18.52,2.1-35.83-1.56-50.13-14.59-11.07-10.09-16.55-23-17.8-37.66-1.36-16,1.6-31.26,11.76-44.14,15-19,35.19-24.46,58.22-20.43,25.93,4.54,42.88,24.19,44.45,50.5a95.1,95.1,0,0,1,.08,11.2c-.16,2.83-1.06,3.79-4,3.76C351.83,473.3,337.74,473.39,323.64,473.39Zm-11.05-15.76v-.14c10.36,0,20.72-.06,31.08,0,2.47,0,3.59-.28,3.05-3.24-2.06-11.38-7.92-19.73-18.69-24.37-21-9.05-44.44,2.41-49.16,23.86-.77,3.53.35,4,3.39,3.91C292.37,457.54,302.48,457.63,312.59,457.63Z"/><path class="cls-2" d="M517.7,465.9c0-17.59.07-35.18-.07-52.77,0-2.87.83-3.62,3.59-3.52,5.6.2,11.22.15,16.84,0,2.2-.05,3,.51,3,2.9q-.11,53.52,0,107.05c0,2.35-.75,3-3,2.91-5.73-.14-11.48-.2-17.21,0-2.79.11-3.24-1-3.23-3.45C517.74,501.34,517.7,483.62,517.7,465.9Z"/><path class="cls-2" d="M544.33,376.63c0,8.3-6.32,14.57-14.78,14.58a14.42,14.42,0,1,1,0-28.83A14.52,14.52,0,0,1,544.33,376.63Z"/><path class="cls-1" d="M246.5,589.44c1-4.54.4-8.11.59-11.65,0-1.07-.29-2.41,1.46-2.45s1.48,1.32,1.49,2.39c0,4.86,0,9.72,0,14.58,0,1,.54,2.4-1.15,2.71a2.84,2.84,0,0,1-3.09-1.57q-3.22-5-6.56-10c-.44-.65-.76-1.81-1.9-1.32-.78.34-.57,1.29-.57,2,0,2.86,0,5.73,0,8.6,0,1.14.07,2.4-1.64,2.27-1.47-.11-1.29-1.27-1.3-2.24,0-4.86,0-9.72,0-14.58,0-1-.45-2.39,1.13-2.79a2.67,2.67,0,0,1,3.1,1.46c1.8,2.85,3.67,5.64,5.54,8.44C244.32,586.41,245.12,587.49,246.5,589.44Z"/><path class="cls-1" d="M86.62,585.14a11.77,11.77,0,0,1,0-3c.61-2.26-1.79-5.7,1.55-6.73,5.25-1.63,10.55.34,12.69,3.87,2.24,3.71,1.81,9.91-.9,13-2,2.29-9.23,3.84-12.27,2.73-1.32-.48-1.08-1.51-1.1-2.45C86.6,590.11,86.62,587.62,86.62,585.14Zm3,0c0,1.61.11,3.24,0,4.84-.19,2.27.93,2.72,2.91,2.62,3-.15,5.38-1.07,6.33-4.18,1-3.27,1-6.44-1.63-9a6.34,6.34,0,0,0-6.3-1.38c-2.36.65-1,3-1.25,4.5A13.36,13.36,0,0,0,89.59,585.12Z"/><path class="cls-1" d="M338.29,585.07c0-5.92,4-10,9.73-10,5.92,0,9.94,4.12,9.88,10.24s-3.89,9.94-9.73,10C342.16,595.3,338.27,591.28,338.29,585.07Zm2.86-.06c0,4.52,2.68,7.52,6.87,7.55s7-2.88,7-7.41c0-4.3-2.67-7.29-6.66-7.44S341.19,580.65,341.15,585Z"/><path class="cls-1" d="M216.66,575c5.74.06,9.74,4.2,9.74,10.07,0,6.11-4.05,10.22-10,10.16-5.75-.06-9.71-4.15-9.74-10C206.61,579.17,210.74,575,216.66,575Zm-.17,17.54c4.19,0,7.13-3.08,7.07-7.44s-3.08-7.47-7.2-7.42-6.75,3-6.79,7.34C209.52,589.56,212.28,592.56,216.49,592.58Z"/><path class="cls-1" d="M287.53,585a8.67,8.67,0,0,1,0-2.6c.76-2.32-2.11-6,1.77-7,6.45-1.58,11.62.82,13.13,5.54,1.32,4.12,1.18,8.22-1.92,11.57S293,595,288.92,595c-1.41,0-1.38-1.16-1.38-2.18Q287.52,588.92,287.53,585Zm2.8.22a37.19,37.19,0,0,1,0,4.09c-.3,2.62.72,3.53,3.35,3.29,3-.28,5.34-1.42,6.1-4.47.8-3.22.87-6.48-1.93-8.92a6.48,6.48,0,0,0-6.33-1.15c-2.24.71-.83,3-1.13,4.57A13.16,13.16,0,0,0,290.33,585.21Z"/><path class="cls-1" d="M365.43,585.15a35.19,35.19,0,0,1,0-4.11c.23-1.87-1-4.12.92-5.56,1.44-1.08,8.74.08,10.06,1.3a5.36,5.36,0,0,1-.33,8.2c-1.84,1.41-1.6,2.38-.51,3.89a38.36,38.36,0,0,1,2.35,3.82c.37.67,1.41,1.51.2,2.17a1.88,1.88,0,0,1-2.62-.74c-1.09-1.82-2.12-3.67-3.19-5.5-.62-1-1.09-2.41-2.7-2.13-1.89.33-1.1,1.92-1.22,3s0,2,0,3S368.75,595,367,595s-1.55-1.26-1.55-2.37C365.43,590.14,365.43,587.65,365.43,585.15Zm2.95-4.45c-.19,1.9-.07,3.49,2.58,3.28,2.08-.16,4.21-.28,4.24-3,.05-2.92-2.25-3.08-4.43-3.31C368.3,577.39,368.21,578.92,368.38,580.7Z"/><path class="cls-1" d="M134.05,585.43c.09,2.56,1,5.12,3.8,6.41a6.74,6.74,0,0,0,8-1.19c1.05-1,2.19-2.24,3.33-.69.91,1.25-.65,2.23-1.5,3-3.58,3.29-10.22,3-13.67-.4-3.7-3.69-3.77-10.92-.14-14.66,3.44-3.55,9.91-3.9,13.63-.6.91.8,2.76,1.75,1.55,3.23s-2.3,0-3.3-.94a7,7,0,0,0-7.68-1.18C135.56,579.41,134.09,582,134.05,585.43Z"/><path class="cls-1" d="M454.14,575.3c1.94.44,5.19-1.26,6.33.79,1.35,2.42-1.88,4.21-3.13,6.24-1.62,2.64-3.57,5.09-5.41,7.6-1.39,1.9-.75,2.62,1.41,2.6,2,0,4,0,6,0,.77,0,1.57.12,1.67,1.09.13,1.23-.75,1.42-1.69,1.42-3.61,0-7.23.13-10.83,0-2.79-.13-2.13-1.88-1.11-3.34,2.49-3.58,5.1-7.07,7.63-10.62.54-.76,1.65-1.5,1-2.56s-1.79-.54-2.74-.58c-1.24-.07-2.49.05-3.73,0s-3,.52-2.85-1.38,1.91-1.08,3-1.17C451.07,575.22,452.45,575.3,454.14,575.3Z"/><path class="cls-1" d="M124,583.33c0,1.5,0,3,0,4.49-.09,4.92-2.58,7.45-7.32,7.45-4.51,0-7.09-2.48-7.25-7.19-.12-3.48,0-7,0-10.46,0-1.18,0-2.37,1.68-2.26,1.51.1,1.26,1.3,1.27,2.25,0,3.36,0,6.73,0,10.09,0,2.87,1.14,4.9,4.33,4.9s4.36-2,4.44-4.87c.09-3.36,0-6.73.07-10.09,0-1-.23-2.17,1.25-2.26,1.76-.1,1.52,1.26,1.54,2.35C124.06,579.59,124,581.46,124,583.33Z"/><path class="cls-1" d="M413.24,593.76c0,.73-.12,1.16-.75,1.23-.93.12-1.92,0-2.13-1-1.11-5.34-5.31-3.15-8.41-3.46-2-.2-2.14,1.76-2.68,3.06-.45,1.07-1.07,1.75-2.24,1.39-1.63-.5-.63-1.62-.35-2.41,1.79-5,3.64-10.06,5.47-15.08.44-1.22,1-2.18,2.59-2.19s2.09,1,2.54,2.2q2.73,7.53,5.5,15.06ZM405,579c-1.56,1.94-1.7,3.88-2.51,5.53-1.3,2.64-.83,3.6,2.36,3.54,2.92-.06,3.45-.85,2.27-3.38C406.3,583,405.78,581.25,405,579Z"/><path class="cls-1" d="M269.22,585.22a38.58,38.58,0,0,0-.05-5.59c-.57-3.79,1.09-4.88,4.56-4.36,1.22.18,2.49,0,3.73,0,1,.06,2.55-.45,2.45,1.37s-1.65,1-2.62,1.24c-1.71.46-4.21-1.34-5.05,1.59-.89,3.08.21,4.26,3.74,4.48,1.11.07,2.94-.63,2.94,1.25s-1.86,1.3-2.92,1.22c-2.69-.19-4.24.34-3.89,3.58.2,2,1,2.62,2.79,2.5,1.11-.08,2.24,0,3.36,0,.74,0,1.57,0,1.67,1s-.61,1.51-1.62,1.51a6.26,6.26,0,0,0-.75,0C269.22,595.57,269.22,595.57,269.22,585.22Z"/><path class="cls-1" d="M68.24,585v-1.87c0-8.51.47-8.9,9-7.79.9.12,1.85.11,1.82,1.32s-1,1.28-1.88,1.29-2,.09-3,0c-2.31-.22-3,.85-3,3.06s.81,3.23,3.06,3a16.76,16.76,0,0,1,2.24,0c.78,0,1.56.19,1.62,1.14.07,1.21-.83,1.36-1.76,1.38a22.9,22.9,0,0,1-2.62,0c-2.4-.26-2.51,1.2-2.51,3s.39,3.19,2.66,3c1.12-.08,2.24,0,3.36,0,.92,0,1.87.1,1.81,1.32s-1,1.2-1.93,1.22c-.12,0-.25,0-.37,0C68.24,595.68,68.24,595.68,68.24,585Z"/><path class="cls-1" d="M468.24,585c0-.62,0-1.25,0-1.87,0-8.52.45-8.9,8.94-7.8.9.12,1.85.11,1.83,1.32s-1,1.27-1.89,1.28a29.62,29.62,0,0,1-3,0c-2.32-.22-3,.84-3,3.06s.77,3.24,3,3a16.76,16.76,0,0,1,2.24,0c.77,0,1.57.18,1.63,1.13.08,1.21-.81,1.37-1.75,1.38a20.66,20.66,0,0,1-2.61,0c-2.39-.25-2.54,1.18-2.53,3s.35,3.19,2.64,3c1.24-.09,2.49,0,3.74,0,.83,0,1.5.33,1.46,1.28s-.72,1.22-1.54,1.22c-2.49,0-5,0-7.47,0-1.6,0-1.75-1-1.75-2.26C468.25,590.19,468.24,587.57,468.24,585Z"/><path class="cls-1" d="M156.91,595.05c-1.79,0-2.08-.67-1.69-1.74,2.08-5.6,4-11.25,6.28-16.78a2.32,2.32,0,0,1,4.31.19c2.15,5.44,4.09,11,6.08,16.46.24.67.6,1.53-.52,1.79-.93.21-2,0-2.15-1-1.07-5.34-5.26-3.2-8.38-3.53-1.61-.18-1.94,1.19-2.43,2.35C158,593.76,157.92,595.13,156.91,595.05ZM164,579.5l-.85,0c-.79,2.19-1.61,4.37-2.36,6.57-.26.77-.76,1.84.71,1.88s3.52.41,4.67-.34-.29-2.39-.61-3.62C165.2,582.43,164.56,581,164,579.5Z"/><path class="cls-1" d="M325.17,586.69c0-1.74-.11-3.49,0-5.23.18-2.36-.32-3.93-3.18-3.58-.93.11-1.82-.18-1.78-1.36s1-1.21,1.91-1.22h9c.91,0,1.85.09,1.82,1.3s-1,1.37-1.88,1.27c-2.88-.33-3.22,1.29-3.14,3.62.13,3.73,0,7.47,0,11.2,0,.94.3,2.18-1.2,2.29-1.74.12-1.55-1.23-1.57-2.33C325.15,590.67,325.17,588.68,325.17,586.69Z"/><path class="cls-1" d="M181.91,586.41c0-1.49-.07-3,0-4.48.15-2.47,0-4.6-3.4-4.06a1.22,1.22,0,0,1-1.56-1.18c0-1.2.83-1.38,1.77-1.38h9c.89,0,1.87,0,2,1.19s-.81,1.5-1.74,1.37c-3.22-.45-3.31,1.52-3.23,3.87.1,3.11.15,6.23,0,9.33-.08,1.36,1.13,3.89-1.43,3.79s-1.06-2.57-1.27-4A31.85,31.85,0,0,1,181.91,586.41Z"/><path class="cls-1" d="M420.3,585c0-2.11-.09-4.23,0-6.33.07-1.2-.76-3.14,1.38-3.23s1.46,1.89,1.5,3.06c.1,3.35.21,6.72,0,10.06-.21,3,.69,4.42,3.9,4,.92-.12,2.57-.59,2.52,1.21s-1.62,1.21-2.61,1.21c-8.23,0-6.52.73-6.7-6.28C420.27,587.53,420.3,586.29,420.3,585Z"/><path class="cls-1" d="M196.33,585.16c0-2.48,0-4.95,0-7.43,0-1.11-.15-2.42,1.55-2.36,1.51,0,1.21,1.3,1.21,2.23q0,7.6,0,15.22c0,1,.18,2.14-1.3,2.19s-1.47-1-1.47-2.06Q196.33,589.07,196.33,585.16Z"/><path class="cls-1" d="M386.25,585V577.1c0-1,.16-1.77,1.38-1.76s1.56.58,1.56,1.64q0,8.24,0,16.47c0,1.07-.51,1.62-1.6,1.57s-1.33-.91-1.33-1.83C386.24,590.44,386.25,587.7,386.25,585Z"/><path class="cls-1" d="M439.38,585.21c0,2.62,0,5.24,0,7.86,0,1.12-.22,2-1.61,1.95-1.21,0-1.34-.9-1.34-1.83V577.1c0-1,.16-1.77,1.38-1.76,1.39,0,1.58.91,1.58,2C439.37,580,439.38,582.59,439.38,585.21Z"/><path class="cls-1" d="M313.54,585.18c0,2.62,0,5.24,0,7.86,0,.9,0,1.84-1.22,1.94-1.42.12-1.57-.87-1.57-2,0-5.24,0-10.48,0-15.72,0-.89,0-1.83,1.21-1.93,1.43-.11,1.58.86,1.58,2Q313.54,581.25,313.54,585.18Z"/><path class="cls-1" d="M262,293.72h6.52a7.56,7.56,0,0,1-6.75.28Z"/><path class="cls-1" d="M273.67,295.08c1.54-1.39,2.74-.78,4.29-.34C276.38,296.44,275.18,295.56,273.67,295.08Z"/></g></g></svg>